<svg width="1024" height="205" viewBox="0 0 1024 205" fill="none" xmlns="http://www.w3.org/2000/svg">
<g clip-path="url(#clip0_105_69624)">
<path d="M416.127 60.6142C411.405 57.0977 405.711 54.3677 398.999 52.4244C392.286 50.4348 384.694 49.4631 376.269 49.4631C364.557 49.4631 354.789 51.3139 346.919 54.9693C339.096 58.6246 333.124 63.483 329.05 69.5444C324.976 75.6059 322.662 82.2225 322.153 89.3944H361.178C361.687 85.7391 363.214 83.0554 365.761 81.2971C368.307 79.5388 371.593 78.6597 375.621 78.6597C379.324 78.6597 382.333 79.4926 384.694 81.112C387.055 82.7315 388.213 85.0913 388.213 88.1914V88.5153C388.213 90.7826 387.333 92.5871 385.528 93.9289C383.722 95.2708 380.806 96.335 376.825 97.0753C372.797 97.8157 367.473 98.4634 360.9 98.9724C354.789 99.4351 349.141 100.407 343.864 101.98C338.633 103.507 334.004 105.728 330.069 108.643C326.134 111.558 323.032 115.306 320.856 119.887C318.634 124.467 317.57 129.974 317.57 136.451C317.57 144.271 319.19 150.749 322.477 155.792C325.763 160.882 330.254 164.63 336.04 167.129C341.781 169.627 348.447 170.83 355.993 170.83C361.085 170.83 365.807 170.229 370.066 168.98C374.325 167.73 378.167 165.787 381.5 163.057C384.833 160.327 387.703 156.81 390.064 152.368H390.99V168.933H430.617V88.1914C430.617 82.7315 429.367 77.6418 426.914 72.9685C424.414 68.2951 420.849 64.1771 416.127 60.6605V60.6142ZM388.537 127.151C388.537 130.714 387.657 133.768 385.852 136.266C384.046 138.765 381.732 140.708 378.908 142.004C376.084 143.346 373.029 143.994 369.788 143.994C366.223 143.994 363.261 143.114 360.946 141.402C358.631 139.644 357.474 137.146 357.474 133.86C357.474 131.824 357.983 129.974 358.955 128.308C359.974 126.642 361.502 125.254 363.585 124.097C365.668 122.941 368.353 122.108 371.593 121.599C373.306 121.321 374.927 121.043 376.454 120.766C378.028 120.442 379.51 120.118 380.898 119.748C382.287 119.378 383.63 119.008 384.88 118.591C386.129 118.175 387.333 117.758 388.444 117.296V127.105L388.537 127.151Z" fill="#034289"/>
<path d="M480.567 50.99H438.163V168.887H480.567V50.99Z" fill="#034289"/>
<path d="M459.458 38.6821C465.198 38.6821 470.105 36.785 474.179 32.9908C478.252 29.1966 480.289 24.6621 480.289 19.341C480.289 14.0199 478.252 9.48544 474.179 5.69126C470.105 1.89709 465.198 0 459.411 0C453.625 0 448.764 1.89709 444.644 5.69126C440.524 9.48544 438.487 14.0199 438.487 19.341C438.487 24.6621 440.524 29.1966 444.644 32.9908C448.764 36.785 453.671 38.6821 459.458 38.6821Z" fill="#034289"/>
<path d="M522.37 87.4973H505.658V120.905H522.37C531.582 120.905 539.081 113.409 539.081 104.201C539.081 94.9932 531.582 87.4973 522.37 87.4973Z" fill="#034289"/>
<path d="M632.964 83.9808C635.741 81.8524 638.935 80.7881 642.639 80.7881C647.361 80.7881 651.203 82.4076 654.212 85.6465C657.221 88.8855 658.98 93.6051 659.536 99.8053H698.885C698.838 89.5795 696.478 80.6493 691.802 73.061C687.126 65.4726 680.553 59.5963 672.081 55.3857C663.609 51.1751 653.61 49.1392 642.037 49.1392C629.214 49.1392 618.289 51.6841 609.169 56.7738C600.049 61.8636 593.059 68.9892 588.198 78.1045C583.338 87.2197 580.884 97.8619 580.884 109.939C580.884 122.015 583.291 132.611 588.198 141.773C593.059 150.888 600.049 158.013 609.169 163.103C618.289 168.193 629.26 170.738 642.037 170.738C653.703 170.738 663.748 168.656 672.174 164.445C680.599 160.234 687.126 154.312 691.709 146.585C696.339 138.904 698.7 129.835 698.838 119.424H659.489C659.165 123.542 658.286 126.966 656.758 129.835C655.23 132.657 653.286 134.832 650.879 136.266C648.472 137.701 645.694 138.441 642.593 138.441C638.889 138.441 635.695 137.377 632.917 135.248C630.14 133.12 628.01 129.927 626.483 125.67C624.955 121.414 624.168 116.046 624.168 109.568C624.168 103.09 624.909 97.7694 626.483 93.4663C628.01 89.2094 630.186 86.0167 632.917 83.8883L632.964 83.9808Z" fill="#DE2E7D"/>
<path d="M805.034 54.8304C798.877 51.0363 791.609 49.1392 783.277 49.1392C774.944 49.1392 767.12 51.2676 760.917 55.4782C754.714 59.6888 750.27 65.5652 747.631 73.1072H746.381V11.3825H705.505V168.609H747.909V102.258C747.955 98.3709 748.696 95.0394 750.085 92.2632C751.473 89.487 753.464 87.3123 756.056 85.8316C758.649 84.3047 761.658 83.5643 765.084 83.5643C770.5 83.5643 774.712 85.2301 777.629 88.5616C780.592 91.893 782.027 96.4738 781.98 102.304V168.656H824.385V93.4199C824.431 84.8137 822.765 77.179 819.339 70.5624C815.913 63.8994 811.145 58.6709 804.988 54.923L805.034 54.8304Z" fill="#DE2E7D"/>
<path d="M927.526 60.3366C922.804 56.8201 917.11 54.0901 910.397 52.1468C903.685 50.1571 896.093 49.1855 887.667 49.1855C875.955 49.1855 866.187 51.0363 858.318 54.6916C850.494 58.347 844.522 63.2054 840.449 69.2668C836.375 75.3282 834.06 81.9449 833.597 89.1168H872.622C873.131 85.4615 874.659 82.7778 877.205 81.0195C879.751 79.2612 883.038 78.3821 887.065 78.3821C890.769 78.3821 893.778 79.215 896.139 80.8344C898.5 82.4539 899.657 84.8137 899.657 87.9138V88.2377C899.657 90.5049 898.778 92.3095 896.972 93.6513C895.167 94.9932 892.25 96.0574 888.269 96.7977C884.242 97.538 878.918 98.1858 872.344 98.6948C866.234 99.1575 860.586 100.129 855.309 101.702C850.077 103.229 845.448 105.45 841.513 108.365C837.578 111.28 834.477 115.028 832.301 119.609C830.125 124.19 829.014 129.696 829.014 136.174C829.014 143.994 830.634 150.471 833.921 155.515C837.208 160.605 841.698 164.353 847.485 166.851C853.225 169.35 859.892 170.553 867.437 170.553C872.53 170.553 877.251 169.951 881.51 168.702C885.769 167.453 889.612 165.509 892.945 162.779C896.278 160.049 899.148 156.533 901.509 152.091H902.435V168.656H942.062V87.9138C942.062 82.4539 940.812 77.3641 938.358 72.6908C935.858 68.0175 932.294 63.8994 927.572 60.3829L927.526 60.3366ZM899.935 126.873C899.935 130.436 899.055 133.49 897.25 135.989C895.445 138.487 893.13 140.431 890.306 141.726C887.482 143.068 884.427 143.716 881.186 143.716C877.622 143.716 874.659 142.837 872.344 141.125C870.03 139.366 868.872 136.868 868.872 133.583C868.872 131.547 869.382 129.696 870.354 128.03C871.372 126.365 872.9 124.976 874.937 123.82C877.02 122.663 879.705 121.83 882.945 121.321C884.658 121.043 886.279 120.766 887.806 120.488C889.334 120.211 890.862 119.84 892.25 119.47C893.639 119.1 894.982 118.73 896.232 118.313C897.481 117.897 898.685 117.481 899.796 117.018V126.827L899.935 126.873Z" fill="#DE2E7D"/>
<path d="M1014.09 137.608C1012.38 137.932 1010.9 138.071 1009.6 138.071C1007.75 138.071 1006.27 137.793 1005.07 137.284C1003.86 136.729 1003.03 135.942 1002.47 134.832C1001.92 133.722 1001.64 132.38 1001.64 130.714V81.4359H1021.92V50.7124H1001.64V22.4412H959.236V50.7124H944.191V81.4359H959.236V134.693C959.144 142.929 960.764 149.777 964.051 155.284C967.384 160.743 972.337 164.769 978.957 167.314C985.577 169.859 993.724 170.877 1003.45 170.368C1008.26 170.136 1012.43 169.581 1015.9 168.748C1019.42 167.915 1022.1 167.221 1024 166.666L1017.84 136.868C1017.01 137.053 1015.76 137.331 1014.05 137.654L1014.09 137.608Z" fill="#DE2E7D"/>
<path d="M539.081 103.923C539.081 113.131 531.582 120.627 522.37 120.627H555.793V87.2197H522.37C531.582 87.2197 539.081 94.7155 539.081 103.923Z" fill="#DE2E7D"/>
<path d="M170.683 33.3167C160.156 22.7904 144.321 20.759 131.763 27.3149C127.516 13.7876 114.866 4 99.9996 4C85.1335 4 72.4835 13.7876 68.1899 27.2687C55.6323 20.759 39.7967 22.7442 29.2704 33.2705C18.7441 43.7969 16.7128 59.6325 23.2686 72.1902C9.78758 76.4377 0 89.0877 0 104C0 118.912 9.78758 131.516 23.2686 135.81C16.7589 148.367 18.7441 164.203 29.2704 174.729C39.7967 185.256 55.6323 187.287 68.1899 180.731C72.4373 194.212 85.0873 204 99.9996 204C114.912 204 127.516 194.212 131.809 180.731C144.367 187.241 160.202 185.256 170.729 174.729C178.393 167.066 181.486 156.585 180.101 146.613H236.333V65.819H179.131C182.271 54.6002 179.501 42.0886 170.683 33.2705V33.3167Z" fill="#034289"/>
<path d="M166.667 4C111.404 4 66.6212 48.783 66.6212 104.046C66.6212 110.048 67.1752 115.911 68.1909 121.59C69.8068 130.593 72.5307 139.18 76.3626 147.121C78.7172 152.061 81.4873 156.724 84.5805 161.156C83.0108 166.096 80.2869 170.759 76.3626 174.729C73.8696 177.223 71.0995 179.208 68.1448 180.731C72.3922 194.212 85.0422 204 99.9544 204C109.142 204 117.498 200.26 123.5 194.259C136.565 200.491 151.201 204 166.621 204C221.884 204 266.666 159.217 266.666 103.954C266.666 48.6907 221.884 4 166.667 4ZM116.667 120.113C107.48 120.113 100.001 112.633 100.001 103.446C100.001 94.2585 107.48 86.7793 116.667 86.7793C125.855 86.7793 133.334 94.2585 133.334 103.446C133.334 112.633 125.855 120.113 116.667 120.113ZM166.667 120.113C157.48 120.113 150 112.633 150 103.446C150 94.2585 157.48 86.7793 166.667 86.7793C175.854 86.7793 183.334 94.2585 183.334 103.446C183.334 112.633 175.854 120.113 166.667 120.113ZM216.667 120.113C207.479 120.113 200 112.633 200 103.446C200 94.2585 207.479 86.7793 216.667 86.7793C225.854 86.7793 233.333 94.2585 233.333 103.446C233.333 112.633 225.854 120.113 216.667 120.113Z" fill="#DE2E7D"/>
</g>
<defs>
<clipPath id="clip0_105_69624">
<rect width="1024" height="204.376" fill="white"/>
</clipPath>
</defs>
</svg>
