<svg width="1024" height="1024" viewBox="0 0 1024 1024" fill="none" xmlns="http://www.w3.org/2000/svg">
<path fill-rule="evenodd" clip-rule="evenodd" d="M473.691 164.868C523.922 140.539 580.404 127 639.96 127C852.115 127 1024 299.311 1024 511.606C1024 723.901 852.009 896 639.96 896C580.404 896 524.028 882.355 473.691 858.132C450.59 880.768 419.01 894.836 384.04 894.836C326.815 894.836 278.386 857.391 261.961 805.666C213.744 830.63 152.916 823.014 112.435 782.607C71.9545 742.2 64.3245 681.484 89.3337 633.355C37.5138 616.96 0 568.62 0 511.5C0 454.38 37.5138 406.04 89.3337 389.645C64.3245 341.516 71.9545 280.8 112.435 240.393C152.916 199.986 213.744 192.37 261.961 217.334C278.386 165.609 326.815 128.164 384.04 128.164C419.01 128.164 450.59 142.232 473.691 164.868ZM475.917 771.5C523.498 801.647 579.663 819.206 639.96 819.206L639.748 819.1C809.196 819.1 946.959 681.061 946.959 511.394C946.959 341.728 809.09 203.688 639.748 203.688C632.86 203.688 626.078 204.006 619.296 204.429C618.872 204.464 618.448 204.511 618.024 204.558C617.176 204.652 616.329 204.746 615.481 204.746C608.911 205.275 602.34 205.91 595.876 206.862C447.305 228.229 332.644 356.642 332.644 511.394C332.644 568.302 348.221 621.72 375.244 667.521C399.618 708.774 381.285 763.461 336.883 781.443L335.929 781.866C352.46 799.849 376.198 810.849 401.737 810.849C432.575 810.849 459.809 795.194 475.917 771.5ZM527.947 510.231C527.947 545.516 499.29 574.121 463.94 574.121C428.59 574.121 399.934 545.516 399.934 510.231C399.934 474.946 428.59 446.342 463.94 446.342C499.29 446.342 527.947 474.946 527.947 510.231ZM639.96 574.121C675.31 574.121 703.966 545.516 703.966 510.231C703.966 474.946 675.31 446.342 639.96 446.342C604.61 446.342 575.953 474.946 575.953 510.231C575.953 545.516 604.61 574.121 639.96 574.121ZM879.986 510.231C879.986 545.516 851.329 574.121 815.979 574.121C780.629 574.121 751.973 545.516 751.973 510.231C751.973 474.946 780.629 446.342 815.979 446.342C851.329 446.342 879.986 474.946 879.986 510.231Z" fill="white"/>
</svg>
