<svg width="1024" height="1024" viewBox="0 0 1024 1024" fill="none" xmlns="http://www.w3.org/2000/svg">
<path d="M655.421 239.723C615 199.249 554.191 191.438 505.97 216.646C489.66 164.633 441.084 127 383.998 127C326.913 127 278.337 164.633 261.849 216.468C213.628 191.438 152.819 199.072 112.398 239.545C71.9775 280.019 64.177 340.907 89.3514 389.191C37.5843 405.523 0 454.162 0 511.5C0 568.838 37.5843 617.3 89.3514 633.809C64.3543 682.093 71.9775 742.981 112.398 783.455C152.819 823.928 213.628 831.739 261.849 806.532C278.159 858.367 326.735 896 383.998 896C441.261 896 489.66 858.367 506.147 806.532C554.369 831.562 615.177 823.928 655.598 783.455C685.027 753.987 696.906 713.691 691.587 675.347H907.52V364.694H687.864C699.919 321.558 689.282 273.451 655.421 239.545V239.723Z" fill="#034289"/>
<path d="M640.001 127C427.792 127 255.826 299.191 255.826 511.678C255.826 534.755 257.953 557.299 261.853 579.134C268.058 613.749 278.518 646.767 293.233 677.3C302.274 696.294 312.911 714.223 324.789 731.265C318.762 750.259 308.302 768.188 293.233 783.455C283.659 793.041 273.022 800.674 261.676 806.532C277.986 858.367 326.562 896 383.825 896C419.105 896 451.193 881.621 474.24 858.544C524.412 882.509 580.611 896 639.824 896C852.033 896 1024 723.809 1024 511.322C1024 298.836 852.033 127 640.001 127ZM448.002 573.453C412.722 573.453 384.002 544.696 384.002 509.37C384.002 474.044 412.722 445.286 448.002 445.286C483.282 445.286 512.002 474.044 512.002 509.37C512.002 544.696 483.282 573.453 448.002 573.453ZM640.001 573.453C604.721 573.453 576.001 544.696 576.001 509.37C576.001 474.044 604.721 445.286 640.001 445.286C675.281 445.286 704.001 474.044 704.001 509.37C704.001 544.696 675.281 573.453 640.001 573.453ZM832 573.453C796.721 573.453 768 544.696 768 509.37C768 474.044 796.721 445.286 832 445.286C867.28 445.286 896 474.044 896 509.37C896 544.696 867.28 573.453 832 573.453Z" fill="#DE2E7D"/>
</svg>
