<svg width="1024" height="1024" viewBox="0 0 1024 1024" fill="none" xmlns="http://www.w3.org/2000/svg">
<g clip-path="url(#clip0_105_69553)">
<path d="M655.425 239.723C615.004 199.249 554.195 191.438 505.973 216.646C489.663 164.633 441.087 127 384.001 127C326.915 127 278.338 164.633 261.851 216.468C213.629 191.438 152.82 199.072 112.399 239.545C71.978 280.019 64.1774 340.907 89.3519 389.191C37.5845 405.523 0 454.162 0 511.5C0 568.838 37.5845 617.3 89.3519 633.809C64.3547 682.093 71.978 742.981 112.399 783.455C152.82 823.928 213.629 831.739 261.851 806.532C278.161 858.367 326.737 896 384.001 896C441.264 896 489.663 858.367 506.15 806.532C554.372 831.562 615.181 823.928 655.602 783.455C685.032 753.987 696.91 713.691 691.591 675.347H907.525V364.694H687.868C699.924 321.558 689.286 273.451 655.425 239.545V239.723Z" fill="#034289"/>
<path d="M655.425 239.723C615.004 199.249 554.195 191.438 505.973 216.646C489.663 164.633 441.087 127 384.001 127C326.915 127 278.338 164.633 261.851 216.468C213.629 191.438 152.82 199.072 112.399 239.545C71.978 280.019 64.1774 340.907 89.3519 389.191C37.5845 405.523 0 454.162 0 511.5C0 568.838 37.5845 617.3 89.3519 633.809C64.3547 682.093 71.978 742.981 112.399 783.455C152.82 823.928 213.629 831.739 261.851 806.532C278.161 858.367 326.737 896 384.001 896C441.264 896 489.663 858.367 506.15 806.532C554.372 831.562 615.181 823.928 655.602 783.455C685.032 753.987 696.91 713.691 691.591 675.347H907.525V364.694H687.868C699.924 321.558 689.286 273.451 655.425 239.545V239.723Z" fill="white" fill-opacity="0.8"/>
<path d="M640.001 127C427.79 127 255.823 299.191 255.823 511.678C255.823 534.755 257.95 557.299 261.851 579.134C268.056 613.749 278.515 646.767 293.23 677.3C302.272 696.294 312.909 714.223 324.787 731.265C318.759 750.259 308.299 768.188 293.23 783.455C283.657 793.041 273.02 800.674 261.673 806.532C277.984 858.367 326.56 896 383.823 896C419.103 896 451.192 881.621 474.239 858.544C524.411 882.509 580.61 896 639.823 896C852.034 896 1024 723.809 1024 511.322C1024 298.836 852.034 127 640.001 127ZM448 573.453C412.721 573.453 384 544.696 384 509.37C384 474.044 412.721 445.286 448 445.286C483.28 445.286 512.001 474.044 512.001 509.37C512.001 544.696 483.28 573.453 448 573.453ZM640.001 573.453C604.721 573.453 576.001 544.696 576.001 509.37C576.001 474.044 604.721 445.286 640.001 445.286C675.281 445.286 704.001 474.044 704.001 509.37C704.001 544.696 675.281 573.453 640.001 573.453ZM832.001 573.453C796.721 573.453 768.001 544.696 768.001 509.37C768.001 474.044 796.721 445.286 832.001 445.286C867.281 445.286 896.001 474.044 896.001 509.37C896.001 544.696 867.281 573.453 832.001 573.453Z" fill="#DE2E7D"/>
</g>
<defs>
<clipPath id="clip0_105_69553">
<rect width="1024" height="1024" fill="white"/>
</clipPath>
</defs>
</svg>
