<svg width="1024" height="205" viewBox="0 0 1024 205" fill="none" xmlns="http://www.w3.org/2000/svg">
<g clip-path="url(#clip0_105_69626)">
<path d="M416.127 60.9907C411.405 57.4741 405.711 54.7442 398.999 52.8008C392.286 50.8112 384.694 49.8395 376.269 49.8395C364.557 49.8395 354.789 51.6903 346.919 55.3457C339.096 59.001 333.124 63.8594 329.05 69.9209C324.976 75.9823 322.662 82.5989 322.153 89.7709H361.178C361.687 86.1155 363.214 83.4318 365.761 81.6735C368.307 79.9153 371.593 79.0361 375.621 79.0361C379.324 79.0361 382.333 79.869 384.694 81.4885C387.055 83.1079 388.213 85.4677 388.213 88.5678V88.8917C388.213 91.159 387.333 92.9635 385.528 94.3054C383.722 95.6472 380.806 96.7114 376.825 97.4518C372.797 98.1921 367.473 98.8399 360.9 99.3488C354.789 99.8115 349.141 100.783 343.864 102.356C338.633 103.883 334.004 106.104 330.069 109.019C326.134 111.934 323.032 115.682 320.856 120.263C318.634 124.844 317.57 130.35 317.57 136.828C317.57 144.648 319.19 151.125 322.477 156.169C325.763 161.259 330.254 165.007 336.04 167.505C341.781 170.004 348.447 171.207 355.993 171.207C361.085 171.207 365.807 170.605 370.066 169.356C374.325 168.107 378.167 166.163 381.5 163.433C384.833 160.703 387.703 157.187 390.064 152.745H390.99V169.31H430.617V88.5678C430.617 83.1079 429.367 78.0182 426.914 73.3449C424.414 68.6716 420.849 64.5535 416.127 61.0369V60.9907ZM388.537 127.528C388.537 131.09 387.657 134.144 385.852 136.643C384.046 139.141 381.732 141.085 378.908 142.38C376.084 143.722 373.029 144.37 369.788 144.37C366.223 144.37 363.261 143.491 360.946 141.779C358.631 140.021 357.474 137.522 357.474 134.237C357.474 132.201 357.983 130.35 358.955 128.684C359.974 127.019 361.502 125.63 363.585 124.474C365.668 123.317 368.353 122.484 371.593 121.975C373.306 121.697 374.927 121.42 376.454 121.142C378.028 120.818 379.51 120.494 380.898 120.124C382.287 119.754 383.63 119.384 384.88 118.967C386.129 118.551 387.333 118.135 388.444 117.672V127.481L388.537 127.528Z" fill="white"/>
<path d="M480.567 51.3664H438.163V169.263H480.567V51.3664Z" fill="white"/>
<path d="M459.458 39.0585C465.198 39.0585 470.105 37.1614 474.179 33.3672C478.252 29.5731 480.289 25.0386 480.289 19.7175C480.289 14.3964 478.252 9.86185 474.179 6.06768C470.105 2.27351 465.198 0.376419 459.411 0.376419C453.625 0.376419 448.764 2.27351 444.644 6.06768C440.524 9.86185 438.487 14.3964 438.487 19.7175C438.487 25.0386 440.524 29.5731 444.644 33.3672C448.764 37.1614 453.671 39.0585 459.458 39.0585Z" fill="white"/>
<path d="M522.37 87.8738H505.658V121.281H522.37C531.582 121.281 539.081 113.785 539.081 104.577C539.081 95.3696 531.582 87.8738 522.37 87.8738Z" fill="white"/>
<path d="M632.964 84.3572C635.741 82.2288 638.935 81.1646 642.639 81.1646C647.361 81.1646 651.203 82.784 654.212 86.023C657.221 89.2619 658.98 93.9815 659.536 100.182H698.885C698.838 89.9559 696.478 81.0258 691.802 73.4374C687.126 65.8491 680.553 59.9727 672.081 55.7621C663.609 51.5515 653.61 49.5156 642.037 49.5156C629.214 49.5156 618.289 52.0605 609.169 57.1502C600.049 62.24 593.059 69.3656 588.198 78.4809C583.338 87.5961 580.884 98.2383 580.884 110.315C580.884 122.392 583.291 132.987 588.198 142.149C593.059 151.264 600.049 158.39 609.169 163.48C618.289 168.569 629.26 171.114 642.037 171.114C653.703 171.114 663.748 169.032 672.174 164.821C680.599 160.611 687.126 154.688 691.709 146.961C696.339 139.28 698.7 130.211 698.838 119.8H659.489C659.165 123.918 658.286 127.342 656.758 130.211C655.23 133.034 653.286 135.208 650.879 136.643C648.472 138.077 645.694 138.817 642.593 138.817C638.889 138.817 635.695 137.753 632.917 135.625C630.14 133.496 628.01 130.304 626.483 126.047C624.955 121.79 624.168 116.423 624.168 109.945C624.168 103.467 624.909 98.1458 626.483 93.8427C628.01 89.5858 630.186 86.3931 632.917 84.2647L632.964 84.3572Z" fill="#DE2E7D"/>
<path d="M805.034 55.2069C798.877 51.4127 791.609 49.5156 783.277 49.5156C774.944 49.5156 767.12 51.644 760.917 55.8546C754.714 60.0653 750.27 65.9416 747.631 73.4837H746.381V11.7589H705.505V168.986H747.909V102.634C747.955 98.7473 748.696 95.4158 750.085 92.6396C751.473 89.8634 753.464 87.6887 756.056 86.208C758.649 84.6811 761.658 83.9408 765.084 83.9408C770.5 83.9408 774.712 85.6065 777.629 88.938C780.592 92.2695 782.027 96.8502 781.98 102.68V169.032H824.385V93.7964C824.431 85.1901 822.765 77.5555 819.339 70.9388C815.913 64.2759 811.145 59.0473 804.988 55.2994L805.034 55.2069Z" fill="#DE2E7D"/>
<path d="M927.526 60.713C922.804 57.1965 917.11 54.4665 910.397 52.5232C903.685 50.5336 896.093 49.5619 887.667 49.5619C875.955 49.5619 866.187 51.4127 858.318 55.0681C850.494 58.7234 844.522 63.5818 840.449 69.6432C836.375 75.7047 834.06 82.3213 833.597 89.4932H872.622C873.131 85.8379 874.659 83.1542 877.205 81.3959C879.751 79.6376 883.038 78.7585 887.065 78.7585C890.769 78.7585 893.778 79.5914 896.139 81.2108C898.5 82.8303 899.657 85.1901 899.657 88.2902V88.6141C899.657 90.8814 898.778 92.6859 896.972 94.0277C895.167 95.3696 892.25 96.4338 888.269 97.1741C884.242 97.9145 878.918 98.5622 872.344 99.0712C866.234 99.5339 860.586 100.506 855.309 102.079C850.077 103.606 845.448 105.827 841.513 108.742C837.578 111.657 834.477 115.405 832.301 119.985C830.125 124.566 829.014 130.072 829.014 136.55C829.014 144.37 830.634 150.848 833.921 155.891C837.208 160.981 841.698 164.729 847.485 167.228C853.225 169.726 859.892 170.929 867.437 170.929C872.53 170.929 877.251 170.328 881.51 169.078C885.769 167.829 889.612 165.886 892.945 163.156C896.278 160.426 899.148 156.909 901.509 152.467H902.435V169.032H942.062V88.2902C942.062 82.8303 940.812 77.7406 938.358 73.0672C935.858 68.3939 932.294 64.2759 927.572 60.7593L927.526 60.713ZM899.935 127.25C899.935 130.813 899.055 133.867 897.25 136.365C895.445 138.864 893.13 140.807 890.306 142.103C887.482 143.445 884.427 144.092 881.186 144.092C877.622 144.092 874.659 143.213 872.344 141.501C870.03 139.743 868.872 137.244 868.872 133.959C868.872 131.923 869.382 130.072 870.354 128.407C871.372 126.741 872.9 125.353 874.937 124.196C877.02 123.039 879.705 122.206 882.945 121.697C884.658 121.42 886.279 121.142 887.806 120.865C889.334 120.587 890.862 120.217 892.25 119.847C893.639 119.476 894.982 119.106 896.232 118.69C897.481 118.273 898.685 117.857 899.796 117.394V127.204L899.935 127.25Z" fill="#DE2E7D"/>
<path d="M1014.09 137.985C1012.38 138.309 1010.9 138.447 1009.6 138.447C1007.75 138.447 1006.27 138.17 1005.07 137.661C1003.86 137.105 1003.03 136.319 1002.47 135.208C1001.92 134.098 1001.64 132.756 1001.64 131.09V81.8124H1021.92V51.0888H1001.64V22.8176H959.236V51.0888H944.191V81.8124H959.236V135.07C959.144 143.306 960.764 150.154 964.051 155.66C967.384 161.12 972.337 165.145 978.957 167.69C985.577 170.235 993.724 171.253 1003.45 170.744C1008.26 170.513 1012.43 169.957 1015.9 169.125C1019.42 168.292 1022.1 167.598 1024 167.042L1017.84 137.244C1017.01 137.429 1015.76 137.707 1014.05 138.031L1014.09 137.985Z" fill="#DE2E7D"/>
<path d="M539.081 104.3C539.081 113.508 531.582 121.003 522.37 121.003H555.793V87.5962H522.37C531.582 87.5962 539.081 95.092 539.081 104.3Z" fill="#DE2E7D"/>
<path fill-rule="evenodd" clip-rule="evenodd" d="M123.357 14.2251C136.438 7.89774 151.147 4.37642 166.656 4.37642C221.905 4.37642 266.667 49.1907 266.667 104.404C266.667 159.617 221.877 204.376 166.656 204.376C151.147 204.376 136.466 200.828 123.357 194.528C117.341 200.415 109.117 204.074 100.01 204.074C85.1081 204.074 72.4965 194.335 68.219 180.883C55.6625 187.375 39.822 185.394 29.2801 174.885C18.7381 164.376 16.7512 148.585 23.264 136.068C9.76922 131.804 0 119.232 0 104.376C0 89.5209 9.76922 76.9486 23.264 72.6845C16.7512 60.1673 18.7381 44.3764 29.2801 33.8675C39.822 23.3585 55.6625 21.3778 68.219 27.8702C72.4965 14.4177 85.1081 4.67903 100.01 4.67903C109.117 4.67903 117.341 8.3379 123.357 14.2251ZM123.937 171.997C136.328 179.837 150.954 184.404 166.656 184.404L166.601 184.376C210.728 184.376 246.604 148.475 246.604 104.349C246.604 60.2224 210.701 24.3214 166.601 24.3214C164.807 24.3214 163.041 24.4039 161.275 24.514C161.165 24.5231 161.054 24.5354 160.944 24.5476C160.723 24.572 160.502 24.5965 160.281 24.5965C158.57 24.7341 156.859 24.8991 155.176 25.1467C116.486 30.7038 86.626 64.1013 86.626 104.349C86.626 119.149 90.6827 133.042 97.7198 144.954C104.067 155.683 99.2928 169.906 87.7298 174.583L87.4815 174.693C91.7865 179.37 97.9682 182.231 104.619 182.231C112.65 182.231 119.742 178.159 123.937 171.997ZM137.486 104.046C137.486 113.223 130.023 120.663 120.818 120.663C111.612 120.663 104.149 113.223 104.149 104.046C104.149 94.8696 111.612 87.4302 120.818 87.4302C130.023 87.4302 137.486 94.8696 137.486 104.046ZM166.656 120.663C175.862 120.663 183.325 113.223 183.325 104.046C183.325 94.8696 175.862 87.4302 166.656 87.4302C157.45 87.4302 149.988 94.8696 149.988 104.046C149.988 113.223 157.45 120.663 166.656 120.663ZM229.163 104.046C229.163 113.223 221.7 120.663 212.495 120.663C203.289 120.663 195.826 113.223 195.826 104.046C195.826 94.8696 203.289 87.4302 212.495 87.4302C221.7 87.4302 229.163 94.8696 229.163 104.046Z" fill="white"/>
</g>
<defs>
<clipPath id="clip0_105_69626">
<rect width="1024" height="204.376" fill="white" transform="translate(0 0.376419)"/>
</clipPath>
</defs>
</svg>
